<svg xmlns="http://www.w3.org/2000/svg" width="170.297" height="32" viewBox="0 0 170.297 32">
    <defs>
        <clipPath id="fxy8a0pmxa">
            <path data-name="사각형 5161" style="fill:none" d="M0 0h170.297v32H0z"/>
        </clipPath>
    </defs>
    <g data-name="그룹 5444" style="clip-path:url(#fxy8a0pmxa)">
        <path data-name="패스 1068" d="M17.226 20.623c5.416-1.326 9.346-5.33 9.346-10.062 0-5.825-5.949-10.549-13.284-10.549S0 4.736 0 10.561c0 4.713 3.923 8.717 9.308 10.054v6.324H.619V30.3l25.4.006v-3.367h-8.793zm-4.01-2.71c-3.26 0-5.908-3.425-5.908-7.631s2.648-7.637 5.908-7.637 5.905 3.422 5.905 7.637-2.642 7.631-5.905 7.631" transform="translate(0 -.004)" style="fill:#00317a"/>
        <path data-name="패스 1069" d="M40.3 13.866v.034a2.212 2.212 0 0 0 2.21 2.182.167.167 0 0 1 .033 0v.014h9.072v-3.313h-3.921V4.088h3.933V.767H40.288v13.069a.066.066 0 0 0 .011.03" transform="translate(-11.564 -.22)" style="fill:#00317a"/>
        <path data-name="패스 1070" d="m61.253 16.081.009.014H71.1v-3.28h-4.719V4.077H71.1V.778L59.024.767V13.9l.043.033a2.2 2.2 0 0 0 2.185 2.147" transform="translate(-16.942 -.22)" style="fill:#00317a"/>
        <path data-name="패스 1071" d="M65.905 25.618H39.854v3.457h8.705v6.881a2.106 2.106 0 0 0-.019.321c0 1.7 1.767 3.076 3.948 3.076s3.944-1.367 3.955-3.051h.011v-7.243h9.452z" transform="translate(-11.439 -7.353)" style="fill:#00317a"/>
        <path data-name="패스 1072" d="M104.157 0v28.357c0 1.685 1.632 3.047 3.8 3.047s3.643-1.362 3.643-3.047V0z" transform="translate(-29.897)" style="fill:#00317a"/>
        <path data-name="패스 1073" d="M79.75 4.15h7.18v18s0 3.446-5.243 4.445h.013c-1.3.2-2 .9-2 2a1.8 1.8 0 0 0 1.789 1.969l.016.016s12.464.512 12.464-7.664V.7H79.75z" transform="translate(-22.877 -.201)" style="fill:#00317a"/>
        <path data-name="패스 1074" d="M146.6 28.867h-6.5V12.053c0-.8-.039-1.609-.1-2.411a3.96 3.96 0 0 0-.7-2.039 3.022 3.022 0 0 0-2.138-1.228 3.551 3.551 0 0 0-2.568.581 3.259 3.259 0 0 0-1.2 1.686 4.109 4.109 0 0 0-.2 1.273 62.717 62.717 0 0 0-.043 1.987v16.962h-6.5c0-.072-.01-.14-.01-.209V11.897a24.45 24.45 0 0 1 .225-3.716 8.737 8.737 0 0 1 1.869-4.323 10.487 10.487 0 0 1 4.077-3.117 9.851 9.851 0 0 1 4.53-.711 10.216 10.216 0 0 1 5.876 2.53c.045.037.091.073.143.113.255-.2.5-.4.756-.59A10.01 10.01 0 0 1 148.762.1a9.474 9.474 0 0 1 5.394.816 10.353 10.353 0 0 1 4.364 3.839 8.279 8.279 0 0 1 1.174 3.1 22.379 22.379 0 0 1 .283 3.995v17.021h-6.511V10.653a7.28 7.28 0 0 0-.194-1.935 3.277 3.277 0 0 0-2.865-2.349 3.456 3.456 0 0 0-2.436.614 2.907 2.907 0 0 0-1 1.435 6.347 6.347 0 0 0-.342 1.965 37.095 37.095 0 0 0-.037 1.668v16.581z" transform="translate(-36.346)" style="fill:#00317a"/>
        <path data-name="패스 1075" d="M133.145 40.31a3.261 3.261 0 0 1-6.521 0" transform="translate(-36.346 -11.571)" style="fill:#d11726"/>
        <path data-name="패스 1076" d="M170.78 40.31a3.261 3.261 0 0 1-6.521 0" transform="translate(-47.148 -11.571)" style="fill:#d11726"/>
        <path data-name="패스 1077" d="M151.986 40.355a3.229 3.229 0 0 1-6.457 0" transform="translate(-41.772 -11.584)" style="fill:#d11726"/>
        <path data-name="패스 1078" d="M215.273 28.381a3.19 3.19 0 0 0 6.38 0V.262h-6.38z" transform="translate(-61.791 -.075)" style="fill:#d11726"/>
        <path data-name="패스 1079" d="M229.9 28.381a3.19 3.19 0 0 0 6.38 0V.262h-6.38z" transform="translate(-65.989 -.075)" style="fill:#d11726"/>
        <path data-name="패스 1080" d="M201.116 22.18a12.594 12.594 0 0 0-.992-4.087 10.393 10.393 0 0 0-3.769-4.583 11.453 11.453 0 0 0-5.8-1.921 11.585 11.585 0 0 0-5.808 1.093 11.332 11.332 0 0 0-5.522 5.576 11.592 11.592 0 0 0-.938 6.657 10.951 10.951 0 0 0 1.67 4.442 11 11 0 0 0 9.072 5.312 13.081 13.081 0 0 0 3.616-.373v-6.448a7.37 7.37 0 0 1-3.6.5 4.919 4.919 0 0 1-2.205-.833 4.974 4.974 0 0 1-2.117-3.513 5.569 5.569 0 0 1 .7-3.665 4.977 4.977 0 0 1 5.941-2.191 4.6 4.6 0 0 1 3.2 3.685 17.831 17.831 0 0 1 .263 3.444v6.475h.021a3.186 3.186 0 0 0 6.368 0h.024v-.26c0-3.019.008-3.531-.005-6.55 0-.922-.036-1.845-.109-2.764" transform="translate(-51.137 -3.32)" style="fill:#d11726"/>
    </g>
</svg>
